<svg width="250" height="100" viewBox="0 0 250 100" fill="none" xmlns="http://www.w3.org/2000/svg">
<g clip-path="url(#clip0_306_589)">
<path d="M81.9266 20.0244C80.1727 20.891 79.3266 22.9552 80.2165 24.6999C81.959 28.1161 84.352 31.0408 87.2258 33.2376C90.9493 36.0838 95.3129 37.5801 99.7648 37.5372C104.217 37.4942 108.557 35.914 112.236 32.9963C115.076 30.7446 117.424 27.7743 119.114 24.3253C119.976 22.566 119.091 20.511 117.317 19.6749V19.6749C115.256 18.7038 112.839 19.7663 111.621 21.688C110.625 23.2607 109.403 24.6354 108.001 25.7471C105.551 27.6895 102.662 28.7416 99.698 28.7701C96.7342 28.7987 93.8291 27.8026 91.3502 25.9077C89.9422 24.8314 88.7075 23.4926 87.6913 21.954C86.4288 20.0427 83.9777 19.0109 81.9266 20.0244V20.0244Z" fill="#424242"/>
<path d="M133.464 20.5072C131.71 21.3738 130.864 23.438 131.754 25.1827C133.496 28.5989 135.889 31.5236 138.763 33.7203C142.486 36.5666 146.85 38.0629 151.302 38.02C155.754 37.977 160.094 36.3968 163.774 33.4791C166.613 31.2274 168.961 28.2571 170.651 24.8081C171.513 23.0488 170.628 20.9938 168.854 20.1577V20.1577C166.793 19.1866 164.377 20.2491 163.159 22.1708C162.162 23.7435 160.94 25.1182 159.538 26.2299C157.088 28.1723 154.199 29.2243 151.235 29.2529C148.271 29.2815 145.366 28.2854 142.887 26.3905C141.479 25.3142 140.245 23.9754 139.228 22.4368C137.966 20.5255 135.515 19.4937 133.464 20.5072V20.5072Z" fill="#424242"/>
<ellipse cx="125.195" cy="69.0298" rx="13.5" ry="12.6198" fill="#424242"/>
</g>
<defs>
<clipPath id="clip0_306_589">
<rect width="250" height="100" fill="white"/>
</clipPath>
</defs>
</svg>
