<svg width="250" height="100" viewBox="0 0 250 100" fill="none" xmlns="http://www.w3.org/2000/svg">
<g clip-path="url(#clip0_306_588)">
<path d="M80.6944 23.006C79.4034 23.0025 78.3385 24.0505 78.5014 25.3312C78.7364 27.1789 79.2561 28.9925 80.0491 30.7195C81.1737 33.1686 82.8256 35.3957 84.9108 37.2735C86.9959 39.1513 89.4733 40.6431 92.2015 41.6638C94.9298 42.6844 97.8554 43.2139 100.811 43.222C103.767 43.2301 106.696 42.7166 109.43 41.7109C112.164 40.7052 114.649 39.227 116.744 37.3606C118.84 35.4942 120.504 33.2762 121.642 30.8333C122.444 29.1106 122.974 27.2999 123.219 25.4535C123.389 24.1737 122.33 23.1199 121.039 23.1164V23.1164C119.748 23.1128 118.717 24.1634 118.504 25.4368C118.288 26.7333 117.893 28.0038 117.327 29.219C116.425 31.1545 115.107 32.9119 113.447 34.3906C111.786 35.8693 109.817 37.0405 107.651 37.8374C105.485 38.6342 103.165 39.041 100.823 39.0346C98.4808 39.0282 96.1628 38.6087 94.0013 37.8C91.8397 36.9914 89.8768 35.8094 88.2248 34.3216C86.5728 32.8338 85.2639 31.0693 84.3729 29.1289C83.8135 27.9106 83.4257 26.6379 83.216 25.3402C83.01 24.0657 81.9855 23.0095 80.6944 23.006V23.006Z" fill="#424242"/>
<path d="M132.232 23.3771C130.941 23.3736 129.876 24.4218 130.039 25.7028C130.274 27.5503 130.793 29.3637 131.586 31.0906C132.711 33.5397 134.363 35.7668 136.448 37.6446C138.533 39.5224 141.01 41.0142 143.739 42.0349C146.467 43.0555 149.393 43.585 152.349 43.5931C155.305 43.6012 158.233 43.0877 160.967 42.082C163.701 41.0763 166.186 39.5981 168.282 37.7317C170.377 35.8653 172.041 33.6473 173.179 31.2044C173.981 29.4819 174.511 27.6713 174.756 25.8251C174.926 24.545 173.867 23.491 172.575 23.4875V23.4875C171.284 23.4839 170.253 24.5347 170.04 25.8084C169.824 27.1046 169.429 28.3748 168.863 29.5897C167.961 31.5251 166.643 33.2823 164.983 34.761C163.323 36.2396 161.354 37.4108 159.188 38.2076C157.022 39.0043 154.702 39.4111 152.36 39.4047C150.018 39.3983 147.7 38.9788 145.539 38.1702C143.377 37.3616 141.415 36.1797 139.763 34.692C138.111 33.2043 136.802 31.4399 135.911 29.4996C135.352 28.2816 134.964 27.0092 134.754 25.7119C134.548 24.4371 133.523 23.3806 132.232 23.3771V23.3771Z" fill="#424242"/>
<path d="M72.1026 60.0782C68.3161 61.9251 67.6599 66.9978 71.1682 69.3303C77.5242 73.5562 84.9921 77.0192 93.2372 79.5401C104.751 83.0603 117.415 84.6312 130.073 84.1097C142.732 83.5881 154.984 80.9906 165.711 76.5539C173.178 73.4657 179.742 69.5549 185.13 65.0099C188.457 62.2032 187.165 57.1108 183.082 55.603V55.603C180.617 54.6928 177.873 55.4488 175.974 57.264C171.244 61.7833 165.155 65.6329 158.06 68.5672C149.356 72.1671 139.415 74.2747 129.143 74.6979C118.872 75.1211 108.597 73.8465 99.2547 70.9901C91.3909 68.5859 84.3984 65.1253 78.7182 60.8448C76.807 59.4045 74.2535 59.0291 72.1026 60.0782V60.0782Z" fill="#424242"/>
</g>
<defs>
<clipPath id="clip0_306_588">
<rect width="250" height="100" fill="white"/>
</clipPath>
</defs>
</svg>
