<svg width="250" height="100" viewBox="0 0 250 100" fill="none" xmlns="http://www.w3.org/2000/svg">
<g clip-path="url(#clip0_306_586)">
<path d="M83.6973 7.07165C82.4063 7.06761 81.3452 8.11343 81.4697 9.39856C81.6855 11.6274 82.2174 13.8166 83.0521 15.896C84.1766 18.6979 85.8286 21.2457 87.9137 23.3939C89.9988 25.5422 92.4762 27.2489 95.2044 28.4165C97.9327 29.5841 100.858 30.1899 103.814 30.1991C106.77 30.2084 109.699 29.621 112.433 28.4704C115.167 27.3199 117.652 25.6287 119.747 23.4935C121.843 21.3584 123.507 18.8209 124.645 16.0262C125.489 13.952 126.032 11.7662 126.258 9.5387C126.389 8.25437 125.333 7.20193 124.042 7.19789V7.19789C122.751 7.19385 121.717 8.24123 121.553 9.52172C121.348 11.1196 120.938 12.686 120.33 14.1794C119.428 16.3937 118.11 18.4041 116.45 20.0958C114.789 21.7875 112.82 23.1274 110.654 24.039C108.488 24.9506 106.168 25.416 103.826 25.4087C101.484 25.4013 99.1658 24.9214 97.0042 23.9963C94.8426 23.0712 92.8797 21.719 91.2277 20.0169C89.5757 18.3148 88.2668 16.2962 87.3758 14.0763C86.7749 12.5791 86.3721 11.0101 86.1752 9.41102C86.0174 8.12953 84.9884 7.07569 83.6973 7.07165V7.07165Z" fill="#424242"/>
<path d="M135.235 7.49618C133.944 7.49214 132.882 8.5382 133.007 9.82363C133.223 12.0523 133.755 14.2413 134.589 16.3206C135.714 19.1224 137.366 21.6702 139.451 23.8185C141.536 25.9667 144.013 27.6734 146.742 28.841C149.47 30.0087 152.395 30.6144 155.351 30.6237C158.308 30.6329 161.236 30.0455 163.97 28.8949C166.704 27.7444 169.189 26.0533 171.285 23.9181C173.38 21.7829 175.044 19.2455 176.182 16.4507C177.026 14.3767 177.569 12.191 177.795 9.96377C177.926 8.67914 176.87 7.62646 175.578 7.62242V7.62242C174.287 7.61837 173.253 8.666 173.089 9.94678C172.884 11.5443 172.474 13.1104 171.866 14.6035C170.964 16.8177 169.646 18.828 167.986 20.5196C166.326 22.2112 164.357 23.551 162.191 24.4625C160.025 25.374 157.705 25.8394 155.363 25.8321C153.021 25.8247 150.703 25.3449 148.542 24.4198C146.38 23.4947 144.418 22.1426 142.766 20.4406C141.114 18.7387 139.805 16.7202 138.914 14.5004C138.313 13.0035 137.91 11.4349 137.713 9.83609C137.556 8.55431 136.526 7.50022 135.235 7.49618V7.49618Z" fill="#424242"/>
<circle cx="124.828" cy="69.0876" r="13.5" fill="#424242"/>
<path d="M156.607 50.4577C156.611 48.8341 155.292 47.4937 153.683 47.7051C148.793 48.3475 144.214 50.6233 140.681 54.2236C136.449 58.5358 134.064 64.3949 134.049 70.5119C134.035 76.629 136.392 82.5029 140.603 86.8415C144.119 90.4639 148.686 92.7683 153.573 93.4413C155.182 93.6628 156.507 92.3306 156.511 90.7071V90.7071C156.515 89.0835 155.191 87.7899 153.595 87.4951C150.234 86.8746 147.112 85.2122 144.67 82.6969C141.533 79.4642 139.776 75.0876 139.787 70.5299C139.798 65.9721 141.576 61.6066 144.729 58.3936C147.182 55.8936 150.312 54.2508 153.675 53.6513C155.274 53.3665 156.603 52.0812 156.607 50.4577V50.4577Z" fill="#424242"/>
<path d="M92.512 50.4576C92.5082 48.8341 93.8269 47.4937 95.4364 47.7051C100.326 48.3475 104.905 50.6233 108.438 54.2236C112.67 58.5358 115.055 64.3949 115.07 70.5119C115.085 76.629 112.727 82.5029 108.516 86.8415C105 90.4639 100.433 92.7683 95.5458 93.4413C93.9373 93.6628 92.6122 92.3306 92.6083 90.7072V90.7072C92.6044 89.0837 93.9278 87.7902 95.5245 87.4954C98.8854 86.8749 102.007 85.2125 104.449 82.6971C107.587 79.4644 109.343 75.0877 109.332 70.5299C109.321 65.9721 107.544 61.6065 104.391 58.3935C101.937 55.8934 98.8074 54.2505 95.4436 53.651C93.8455 53.3663 92.5159 52.081 92.512 50.4576V50.4576Z" fill="#424242"/>
<path d="M40.6353 84.5698C39.7857 85.5721 38.2875 85.7296 37.3241 84.8377C33.6069 81.3963 30.8596 77.0772 29.3612 72.2834C27.6316 66.75 27.6435 60.8327 29.3956 55.2798C31.1477 49.7269 34.5611 44.7877 39.2043 41.0868C43.2273 37.8802 48.017 35.728 53.1074 34.8192C54.4107 34.5865 55.5878 35.5561 55.7195 36.8734V36.8734C55.8513 38.1906 54.8869 39.355 53.5872 39.6071C49.4744 40.405 45.6091 42.1761 42.3467 44.7765C38.4639 47.8713 35.6094 52.0017 34.1443 56.6453C32.6791 61.2889 32.6691 66.2372 34.1155 70.8644C35.3134 74.6968 37.4658 78.1664 40.3688 80.9787C41.3604 81.9393 41.5286 83.5158 40.6353 84.5698V84.5698Z" fill="#424242"/>
<path d="M21.497 29.3484C21.78 28.585 22.6208 28.1816 23.3781 28.4794C26.3219 29.637 29.0547 31.2371 31.4755 33.2204C32.1424 33.7668 32.168 34.7638 31.5645 35.3804V35.3804C30.9903 35.9671 30.0577 35.9901 29.4221 35.4716C27.3178 33.7546 24.9524 32.3594 22.4077 31.334C21.6231 31.0178 21.2028 30.1421 21.497 29.3484V29.3484Z" fill="#424242"/>
<path d="M225.352 31.4884C225.069 30.725 224.228 30.3216 223.471 30.6194C220.527 31.777 217.794 33.3771 215.373 35.3604C214.706 35.9068 214.681 36.9038 215.284 37.5204V37.5204C215.858 38.1071 216.791 38.1302 217.427 37.6116C219.531 35.8947 221.896 34.4995 224.441 33.474C225.226 33.1579 225.646 32.2821 225.352 31.4884V31.4884Z" fill="#424242"/>
<path d="M12.9858 38.7004C12.9986 38.0345 13.529 37.4925 14.1948 37.4809C20.1153 37.3782 25.9106 38.1993 31.1922 39.8863C32.0606 40.1637 32.3723 41.2147 31.8236 41.9435V41.9435C31.4644 42.4206 30.8366 42.6052 30.271 42.4146C25.33 40.7499 19.873 39.9242 14.2887 39.9953C13.5674 40.0045 12.9719 39.4217 12.9858 38.7004V38.7004Z" fill="#424242"/>
<path d="M236.866 41.7004C236.853 41.0345 236.323 40.4925 235.657 40.4809C229.736 40.3782 223.941 41.1993 218.659 42.8863C217.791 43.1637 217.479 44.2147 218.028 44.9435V44.9435C218.387 45.4206 219.015 45.6052 219.581 45.4146C224.522 43.7499 229.979 42.9242 235.563 42.9953C236.284 43.0045 236.88 42.4217 236.866 41.7004V41.7004Z" fill="#424242"/>
<path d="M207.515 84.5698C208.365 85.5721 209.863 85.7296 210.826 84.8377C214.543 81.3963 217.291 77.0772 218.789 72.2834C220.519 66.75 220.507 60.8327 218.755 55.2798C217.003 49.7269 213.589 44.7877 208.946 41.0868C204.923 37.8802 200.133 35.728 195.043 34.8192C193.74 34.5865 192.563 35.5561 192.431 36.8734V36.8734C192.299 38.1906 193.263 39.355 194.563 39.6071C198.676 40.405 202.541 42.1761 205.804 44.7765C209.687 47.8713 212.541 52.0017 214.006 56.6453C215.471 61.2889 215.481 66.2372 214.035 70.8644C212.837 74.6968 210.685 78.1664 207.782 80.9787C206.79 81.9393 206.622 83.5158 207.515 84.5698V84.5698Z" fill="#424242"/>
</g>
<defs>
<clipPath id="clip0_306_586">
<rect width="250" height="100" fill="white"/>
</clipPath>
</defs>
</svg>
